<svg id="svg" version="1.1" xmlns="http://www.w3.org/2000/svg" xmlns:xlink="http://www.w3.org/1999/xlink" width="400" height="292.55230125523013" viewBox="0, 0, 400,292.55230125523013"><g id="svgg"><path id="path0" d="M238.521 59.713 C 237.212 60.238,236.070 61.247,235.597 62.297 C 235.134 63.326,234.635 68.875,234.635 73.007 C 234.635 73.248,234.635 73.906,234.635 74.470 C 234.635 75.033,234.646 75.658,234.660 75.860 C 234.673 76.061,234.601 76.654,234.499 77.179 C 234.397 77.709,234.452 78.298,234.624 78.506 C 234.820 78.742,234.834 79.036,234.662 79.308 C 234.312 79.861,234.303 81.263,234.649 81.476 C 234.805 81.573,234.778 82.005,234.584 82.518 C 234.348 83.143,234.342 83.628,234.562 84.210 C 234.773 84.770,234.776 85.237,234.571 85.697 C 234.372 86.143,234.368 86.629,234.560 87.149 C 234.747 87.656,234.748 88.206,234.564 88.718 C 234.337 89.349,234.441 89.884,235.081 91.391 C 237.323 96.667,243.163 97.389,246.482 92.802 L 247.403 91.530 247.403 81.902 L 247.403 72.275 261.083 72.275 L 274.762 72.275 274.769 81.712 C 274.776 93.077,274.831 93.276,278.566 95.562 C 278.808 95.709,282.890 95.911,287.637 96.009 C 298.101 96.226,298.776 96.361,300.957 98.684 C 302.893 100.746,303.133 101.614,303.467 107.750 C 304.024 118.005,303.650 211.121,303.043 213.129 C 301.561 218.033,299.132 219.414,291.441 219.726 L 287.198 219.898 287.119 226.262 L 287.041 232.626 293.484 232.626 C 297.027 232.626,299.927 232.510,299.927 232.367 C 299.927 232.225,300.684 232.017,301.609 231.904 C 303.367 231.691,307.563 230.413,307.823 230.011 C 307.906 229.883,308.500 229.506,309.144 229.174 C 310.110 228.674,312.063 226.810,314.110 224.433 C 314.318 224.192,314.775 223.270,315.126 222.385 C 315.478 221.500,315.960 220.393,316.198 219.925 C 316.841 218.662,317.690 213.206,318.069 207.901 C 318.544 201.255,318.321 106.179,317.823 102.853 C 317.360 99.761,316.631 96.506,316.317 96.127 C 316.178 95.960,315.780 95.064,315.433 94.136 C 315.086 93.208,314.418 92.028,313.948 91.514 C 313.479 91.000,313.094 90.461,313.094 90.316 C 313.094 89.981,309.643 86.613,309.300 86.613 C 309.158 86.613,308.670 86.303,308.216 85.925 C 307.249 85.120,304.498 84.124,302.414 83.824 C 301.609 83.708,300.814 83.504,300.646 83.372 C 300.478 83.239,297.449 83.091,293.916 83.043 L 287.491 82.955 287.345 73.446 C 287.218 65.197,287.132 63.814,286.697 63.019 C 286.126 61.977,284.567 60.571,283.981 60.571 C 283.766 60.571,283.535 60.406,283.468 60.205 C 283.263 59.590,240.009 59.117,238.521 59.713 M100.073 83.354 C 100.073 83.493,99.367 83.689,98.503 83.791 C 96.628 84.011,92.519 85.347,91.942 85.924 C 91.716 86.150,91.117 86.546,90.609 86.805 C 90.101 87.065,89.027 87.972,88.222 88.821 C 84.156 93.114,83.015 96.589,82.062 107.585 C 81.479 114.308,81.586 205.863,82.183 211.266 C 82.573 214.794,83.284 218.528,83.654 218.994 C 83.794 219.169,84.008 219.642,84.130 220.044 C 84.549 221.422,85.752 223.848,86.017 223.848 C 86.162 223.848,86.372 224.133,86.482 224.482 C 86.668 225.068,90.137 228.822,90.493 228.822 C 90.580 228.822,91.321 229.273,92.141 229.825 C 93.640 230.834,95.590 231.522,98.025 231.902 C 98.749 232.015,99.500 232.235,99.693 232.390 C 99.913 232.568,109.922 232.688,126.467 232.711 L 152.890 232.749 154.060 232.067 C 156.890 230.418,157.528 229.358,157.544 226.276 C 157.557 223.767,156.605 222.062,154.635 221.068 C 153.997 220.746,153.395 220.374,153.297 220.241 C 153.200 220.108,142.600 219.960,129.742 219.911 C 105.043 219.819,103.486 219.740,100.915 218.450 C 99.522 217.751,97.767 215.670,97.120 213.950 C 96.503 212.308,96.359 106.265,96.970 103.368 C 97.458 101.053,98.650 98.783,99.741 98.090 C 100.165 97.820,100.578 97.510,100.659 97.400 C 101.135 96.754,107.962 95.752,112.290 95.693 L 112.948 95.684 112.948 89.393 L 112.948 83.102 106.511 83.102 C 102.970 83.102,100.073 83.215,100.073 83.354 M195.465 89.869 C 194.097 90.008,192.714 90.244,192.392 90.394 C 192.070 90.544,190.885 90.822,189.759 91.011 C 187.201 91.440,183.125 92.442,182.736 92.737 C 182.575 92.858,181.456 93.261,180.249 93.632 C 179.042 94.003,177.593 94.544,177.030 94.833 C 176.467 95.122,175.018 95.821,173.811 96.386 C 170.831 97.780,167.834 99.457,167.715 99.795 C 167.662 99.948,167.500 100.073,167.355 100.073 C 166.935 100.073,163.049 102.739,160.824 104.552 C 159.455 105.669,156.142 108.689,155.098 109.772 C 152.627 112.337,149.817 115.552,149.817 115.814 C 149.817 115.931,149.455 116.416,149.012 116.891 C 148.110 117.861,146.598 120.147,146.598 120.542 C 146.598 120.684,146.450 120.849,146.268 120.910 C 145.615 121.128,140.923 130.302,140.014 133.138 C 139.730 134.023,139.378 134.900,139.230 135.087 C 138.943 135.452,137.734 139.843,137.391 141.770 C 137.276 142.414,137.072 143.075,136.936 143.239 C 135.230 145.306,135.211 170.515,136.914 172.781 C 137.037 172.945,137.302 173.870,137.503 174.835 C 137.981 177.137,139.004 180.649,139.251 180.834 C 139.358 180.914,139.686 181.770,139.981 182.736 C 140.535 184.552,143.551 191.107,143.952 191.367 C 144.077 191.448,144.468 192.084,144.821 192.781 C 145.561 194.240,147.797 197.677,148.564 198.535 C 148.851 198.855,149.396 199.574,149.776 200.131 C 151.908 203.262,158.786 210.004,162.831 212.930 C 165.398 214.787,169.357 217.354,169.932 217.535 C 170.294 217.648,170.754 217.904,170.957 218.103 C 171.328 218.469,173.162 219.368,174.909 220.041 C 175.432 220.243,175.860 220.495,175.860 220.602 C 175.860 220.709,177.209 221.253,178.859 221.810 C 180.508 222.368,181.929 222.918,182.015 223.033 C 182.210 223.291,187.797 224.658,189.685 224.909 C 190.450 225.011,191.075 225.191,191.075 225.310 C 191.075 226.607,214.351 226.607,216.790 225.309 C 217.051 225.170,218.910 224.707,220.922 224.281 C 222.933 223.854,224.974 223.321,225.457 223.097 C 225.940 222.872,227.519 222.280,228.967 221.780 C 230.414 221.281,231.665 220.767,231.746 220.640 C 231.828 220.512,232.879 219.990,234.081 219.480 C 235.283 218.969,236.337 218.457,236.422 218.342 C 236.507 218.227,237.410 217.703,238.428 217.177 C 239.446 216.651,240.557 215.962,240.897 215.645 C 241.237 215.329,241.637 215.069,241.787 215.069 C 242.567 215.069,249.531 209.314,252.963 205.834 C 255.825 202.932,259.673 198.204,259.992 197.199 C 260.091 196.889,260.283 196.635,260.419 196.635 C 260.829 196.635,265.036 189.253,266.171 186.540 C 266.575 185.574,267.140 184.323,267.426 183.760 C 267.712 183.197,268.311 181.485,268.757 179.956 C 269.203 178.427,269.669 177.045,269.793 176.884 C 270.164 176.402,271.194 170.900,271.552 167.487 C 271.736 165.735,272.007 164.073,272.154 163.793 C 272.524 163.090,272.501 152.534,272.129 152.304 C 271.968 152.205,271.836 151.604,271.836 150.968 C 271.836 148.319,270.347 140.153,269.605 138.730 C 269.386 138.310,269.205 137.809,269.204 137.616 C 269.201 136.961,267.715 132.553,267.498 132.553 C 267.379 132.553,267.099 131.928,266.875 131.163 C 266.172 128.759,261.789 120.791,260.228 119.077 C 259.853 118.666,259.546 118.186,259.546 118.011 C 259.546 117.835,259.151 117.269,258.669 116.752 C 258.186 116.235,257.791 115.742,257.791 115.656 C 257.791 114.932,249.721 106.787,246.701 104.462 C 245.550 103.577,244.206 102.535,243.713 102.147 C 241.328 100.269,233.625 95.934,231.968 95.537 C 231.525 95.431,231.163 95.245,231.163 95.123 C 231.163 95.001,229.879 94.471,228.310 93.945 C 226.741 93.419,225.062 92.817,224.579 92.607 C 223.490 92.133,217.169 90.710,216.156 90.710 C 215.746 90.710,215.367 90.593,215.313 90.451 C 215.026 89.690,201.219 89.285,195.465 89.869 M205.556 105.919 C 205.660 106.088,206.436 106.133,207.435 106.028 C 208.561 105.911,209.205 105.962,209.340 106.181 C 209.453 106.362,210.063 106.511,210.698 106.511 C 211.332 106.511,211.851 106.624,211.851 106.763 C 211.851 106.901,212.160 106.956,212.537 106.883 C 213.254 106.746,219.329 108.102,219.876 108.521 C 220.049 108.653,221.277 109.134,222.604 109.589 C 223.932 110.044,225.018 110.525,225.018 110.658 C 225.018 110.791,225.117 110.874,225.238 110.842 C 225.998 110.642,232.219 114.413,235.699 117.183 C 243.754 123.598,250.619 133.599,252.979 142.362 C 253.411 143.968,253.908 145.586,254.082 145.959 C 254.256 146.331,254.405 147.154,254.412 147.787 C 254.420 148.420,254.539 148.938,254.677 148.938 C 254.816 148.939,254.875 149.400,254.809 149.963 C 254.743 150.527,254.807 150.988,254.951 150.988 C 255.094 150.988,255.166 151.712,255.111 152.597 C 255.056 153.483,255.110 154.207,255.230 154.207 C 255.750 154.206,255.472 161.586,254.938 161.992 C 254.625 162.229,254.568 162.384,254.792 162.390 C 255.208 162.401,255.321 165.033,254.905 165.033 C 254.767 165.033,254.709 165.329,254.778 165.691 C 255.175 167.794,250.855 181.008,249.156 182.885 C 248.916 183.150,248.720 183.490,248.720 183.641 C 248.720 183.951,245.325 189.165,244.544 190.055 C 244.264 190.375,243.048 191.777,241.842 193.172 C 240.636 194.566,239.090 196.144,238.406 196.679 C 237.722 197.213,237.030 197.814,236.869 198.014 C 235.454 199.776,225.808 205.459,222.238 206.634 C 221.595 206.846,220.999 207.112,220.914 207.224 C 220.714 207.492,215.633 208.808,213.753 209.080 C 212.948 209.196,212.125 209.423,211.923 209.583 C 211.722 209.744,211.167 209.797,210.691 209.702 C 210.198 209.604,209.741 209.665,209.630 209.845 C 209.512 210.036,208.812 210.110,207.863 210.031 C 206.998 209.959,206.291 210.010,206.291 210.144 C 206.291 210.480,200.514 210.453,200.306 210.117 C 200.214 209.968,199.434 209.918,198.573 210.007 C 197.613 210.106,196.934 210.049,196.816 209.859 C 196.708 209.684,196.195 209.618,195.643 209.708 C 195.070 209.801,194.578 209.732,194.460 209.542 C 194.350 209.363,193.865 209.217,193.382 209.217 C 192.899 209.217,192.578 209.098,192.668 208.952 C 192.758 208.806,192.584 208.751,192.281 208.831 C 191.628 209.001,186.620 207.783,186.361 207.390 C 186.262 207.241,186.094 207.140,185.987 207.166 C 185.185 207.361,178.352 204.109,175.049 201.962 C 169.784 198.539,163.575 192.570,160.370 187.850 C 158.472 185.055,154.931 178.497,155.316 178.489 C 155.430 178.486,155.378 178.387,155.200 178.269 C 153.963 177.446,151.477 166.903,151.447 162.355 C 151.436 160.640,151.330 159.389,151.212 159.575 C 151.093 159.760,150.995 159.147,150.992 158.212 C 150.989 157.193,151.101 156.583,151.270 156.687 C 151.447 156.797,151.489 156.174,151.382 155.022 C 151.198 153.048,152.006 146.520,152.453 146.360 C 152.595 146.309,152.644 146.094,152.562 145.881 C 152.403 145.466,154.988 137.481,155.361 137.236 C 155.484 137.155,155.740 136.613,155.929 136.032 C 156.118 135.450,156.730 134.216,157.288 133.290 C 157.846 132.363,158.303 131.537,158.303 131.456 C 158.303 130.458,164.136 123.233,167.551 120.002 C 170.330 117.371,170.954 116.886,175.204 114.049 C 177.961 112.208,183.798 109.362,184.898 109.322 C 185.371 109.305,185.705 109.238,185.641 109.173 C 185.168 108.695,191.246 107.015,194.771 106.648 C 195.876 106.534,196.948 106.306,197.153 106.142 C 197.364 105.973,198.213 105.916,199.124 106.010 C 200.004 106.101,200.799 106.053,200.891 105.904 C 201.115 105.541,205.331 105.555,205.556 105.919 M114.996 145.159 C 112.845 145.572,112.423 145.703,112.013 146.087 C 111.798 146.288,111.164 146.689,110.603 146.979 C 102.112 151.362,102.948 165.318,111.967 169.758 C 115.413 171.454,122.334 171.080,124.480 169.081 C 124.796 168.786,125.178 168.544,125.327 168.544 C 126.274 168.544,129.296 164.453,129.755 162.549 C 129.871 162.067,130.118 161.579,130.305 161.464 C 130.762 161.182,130.766 155.409,130.309 154.470 C 130.120 154.084,129.630 153.001,129.218 152.064 C 126.994 147.000,120.878 144.031,114.996 145.159 " stroke="none" fill="#5c448c" fill-rule="evenodd"></path><path id="path1" d="M197.879 106.428 C 198.321 106.495,199.045 106.495,199.488 106.428 C 199.931 106.361,199.568 106.306,198.683 106.306 C 197.798 106.306,197.436 106.361,197.879 106.428 M206.950 106.428 C 207.392 106.495,208.116 106.495,208.559 106.428 C 209.001 106.361,208.639 106.306,207.754 106.306 C 206.869 106.306,206.507 106.361,206.950 106.428 M194.879 106.803 C 194.879 106.964,195.201 107.096,195.594 107.096 C 195.986 107.096,196.389 106.964,196.489 106.803 C 196.594 106.633,196.297 106.511,195.774 106.511 C 195.282 106.511,194.879 106.642,194.879 106.803 M209.949 106.803 C 210.048 106.964,210.377 107.096,210.680 107.096 C 210.983 107.096,211.312 106.964,211.412 106.803 C 211.518 106.632,211.214 106.511,210.680 106.511 C 210.147 106.511,209.843 106.632,209.949 106.803 M193.124 107.096 C 193.124 107.257,193.453 107.388,193.855 107.388 C 194.257 107.388,194.587 107.257,194.587 107.096 C 194.587 106.935,194.257 106.803,193.855 106.803 C 193.453 106.803,193.124 106.935,193.124 107.096 M212.143 107.096 C 212.143 107.257,212.473 107.388,212.875 107.388 C 213.277 107.388,213.606 107.257,213.606 107.096 C 213.606 106.935,213.277 106.803,212.875 106.803 C 212.473 106.803,212.143 106.935,212.143 107.096 M191.502 107.408 C 191.396 107.580,191.129 107.652,190.909 107.567 C 190.689 107.483,190.418 107.560,190.308 107.740 C 190.167 107.967,190.397 108.007,191.066 107.873 C 191.594 107.767,192.142 107.681,192.282 107.681 C 192.423 107.681,192.538 107.549,192.538 107.388 C 192.538 106.998,191.746 107.013,191.502 107.408 M213.899 107.388 C 213.899 107.549,214.162 107.681,214.484 107.681 C 214.806 107.681,215.069 107.549,215.069 107.388 C 215.069 107.228,214.806 107.096,214.484 107.096 C 214.162 107.096,213.899 107.228,213.899 107.388 M215.536 107.637 C 215.451 107.773,216.135 108.051,217.055 108.254 C 217.975 108.457,219.280 108.872,219.955 109.176 C 221.339 109.800,221.507 109.833,221.507 109.479 C 221.507 109.342,220.486 108.940,219.239 108.587 C 217.992 108.234,216.743 107.819,216.463 107.666 C 215.840 107.325,215.730 107.322,215.536 107.637 M186.320 108.761 C 186.039 108.834,185.808 109.016,185.808 109.166 C 185.808 109.525,185.889 109.512,186.872 109.000 C 187.672 108.583,187.419 108.473,186.320 108.761 M184.638 109.357 C 184.396 109.449,184.133 109.608,184.053 109.710 C 183.972 109.811,182.985 110.254,181.858 110.693 C 179.526 111.602,178.874 111.964,179.122 112.212 C 179.324 112.414,180.834 111.776,180.834 111.489 C 180.834 111.381,181.887 110.927,183.175 110.479 C 184.462 110.031,185.516 109.547,185.516 109.404 C 185.516 109.117,185.299 109.106,184.638 109.357 M221.800 109.698 C 221.800 109.972,222.495 110.315,223.050 110.315 C 223.228 110.315,223.119 110.121,222.806 109.885 C 222.152 109.390,221.800 109.324,221.800 109.698 M224.433 110.823 C 224.996 111.106,225.523 111.421,225.604 111.523 C 225.684 111.625,226.540 112.095,227.505 112.567 C 229.440 113.513,233.270 115.825,233.510 116.191 C 233.594 116.319,234.185 116.779,234.824 117.212 C 236.674 118.467,243.130 124.733,243.152 125.295 C 243.157 125.406,243.620 125.999,244.183 126.611 C 244.745 127.224,245.206 127.882,245.207 128.074 C 245.208 128.266,245.501 128.628,245.859 128.879 C 246.216 129.129,246.381 129.336,246.225 129.339 C 246.068 129.341,246.086 129.440,246.265 129.558 C 246.444 129.676,246.809 130.201,247.077 130.724 C 247.345 131.247,247.691 131.675,247.846 131.675 C 248.100 131.675,246.258 128.516,245.800 128.164 C 245.695 128.083,245.203 127.425,244.708 126.701 C 243.489 124.918,240.151 121.300,237.866 119.282 C 235.088 116.830,234.990 116.752,234.699 116.752 C 234.551 116.752,234.387 116.634,234.333 116.489 C 234.065 115.765,225.802 110.902,224.140 110.490 C 223.634 110.364,223.724 110.467,224.433 110.823 M175.240 114.246 C 173.891 115.121,172.458 116.102,172.056 116.425 C 168.638 119.174,167.502 120.202,165.366 122.481 C 164.020 123.917,162.515 125.684,162.020 126.408 C 161.526 127.132,161.037 127.791,160.935 127.871 C 160.203 128.445,157.003 133.984,157.257 134.238 C 157.349 134.331,157.425 134.262,157.425 134.086 C 157.425 133.909,157.596 133.591,157.805 133.379 C 158.014 133.166,158.634 132.202,159.182 131.236 C 159.731 130.271,160.429 129.217,160.733 128.895 C 161.038 128.574,161.373 128.095,161.477 127.831 C 162.402 125.505,170.685 117.582,175.054 114.843 C 175.819 114.364,176.444 113.873,176.444 113.753 C 176.445 113.632,176.617 113.533,176.828 113.533 C 177.300 113.533,178.474 112.678,178.020 112.665 C 177.840 112.660,176.589 113.371,175.240 114.246 M248.041 132.455 C 248.151 132.751,248.479 133.321,248.768 133.723 C 249.058 134.126,249.640 135.311,250.061 136.357 C 250.482 137.403,250.928 138.391,251.052 138.552 C 251.176 138.713,251.439 139.347,251.637 139.961 C 251.835 140.575,252.049 141.026,252.113 140.961 C 252.274 140.801,250.819 136.574,250.534 136.373 C 250.408 136.284,249.900 135.295,249.406 134.176 C 248.619 132.393,247.486 130.965,248.041 132.455 M156.442 135.488 C 156.160 135.966,156.047 136.357,156.191 136.357 C 156.462 136.357,157.232 134.896,157.055 134.719 C 157.000 134.664,156.724 135.010,156.442 135.488 M155.405 137.571 C 154.949 138.881,155.006 138.967,155.669 137.966 C 156.307 137.003,156.393 136.650,155.991 136.650 C 155.845 136.650,155.582 137.064,155.405 137.571 M252.359 142.092 C 252.603 143.067,252.741 143.260,253.004 142.997 C 253.108 142.893,253.043 142.629,252.861 142.409 C 252.678 142.189,252.602 141.936,252.692 141.846 C 252.782 141.756,252.696 141.584,252.501 141.463 C 252.237 141.301,252.201 141.463,252.359 142.092 M153.621 142.063 C 153.621 142.304,153.753 142.502,153.914 142.502 C 154.075 142.502,154.206 142.304,154.206 142.063 C 154.206 141.822,154.075 141.624,153.914 141.624 C 153.753 141.624,153.621 141.822,153.621 142.063 M153.178 143.693 C 153.069 144.188,153.059 144.670,153.154 144.766 C 153.250 144.862,153.328 144.655,153.328 144.306 C 153.328 143.958,153.460 143.672,153.621 143.672 C 153.782 143.672,153.914 143.475,153.914 143.233 C 153.914 142.441,153.379 142.775,153.178 143.693 M252.816 143.800 C 252.816 144.422,253.393 145.826,253.575 145.645 C 253.816 145.403,253.371 143.380,253.076 143.380 C 252.933 143.380,252.816 143.569,252.816 143.800 M151.573 150.678 C 151.573 150.990,151.704 151.327,151.865 151.426 C 152.031 151.529,152.158 151.283,152.158 150.859 C 152.158 150.447,152.026 150.110,151.865 150.110 C 151.704 150.110,151.573 150.365,151.573 150.678 M254.604 152.743 C 254.617 153.959,254.641 153.999,254.908 153.266 C 255.104 152.732,255.099 152.302,254.894 151.950 C 254.652 151.533,254.593 151.695,254.604 152.743 M151.280 154.060 C 151.280 154.945,151.412 155.669,151.573 155.669 C 151.734 155.669,151.865 154.945,151.865 154.060 C 151.865 153.175,151.734 152.451,151.573 152.451 C 151.412 152.451,151.280 153.175,151.280 154.060 M254.885 158.212 C 254.899 160.088,254.993 160.880,255.157 160.497 C 255.511 159.675,255.511 155.742,255.157 155.523 C 254.969 155.407,254.872 156.369,254.885 158.212 M151.475 160.546 C 151.163 160.858,151.250 163.570,151.573 163.570 C 151.734 163.570,151.865 162.846,151.865 161.960 C 151.865 160.333,151.827 160.194,151.475 160.546 M254.604 163.570 C 254.617 164.785,254.641 164.826,254.908 164.093 C 255.104 163.559,255.099 163.128,254.894 162.776 C 254.652 162.360,254.593 162.522,254.604 163.570 M151.688 164.908 C 151.581 165.333,151.642 165.804,151.828 165.991 C 152.073 166.235,152.158 166.041,152.158 165.238 C 152.158 163.977,151.957 163.836,151.688 164.908 M253.240 170.618 C 253.131 170.793,253.189 171.083,253.369 171.262 C 253.608 171.501,253.694 171.416,253.694 170.944 C 253.694 170.237,253.542 170.128,253.240 170.618 M252.816 172.202 C 252.816 172.443,252.948 172.641,253.109 172.641 C 253.270 172.641,253.402 172.443,253.402 172.202 C 253.402 171.960,253.270 171.763,253.109 171.763 C 252.948 171.763,252.816 171.960,252.816 172.202 M153.332 172.697 C 153.340 173.428,153.691 174.396,153.948 174.396 C 154.090 174.396,154.206 174.199,154.206 173.958 C 154.206 173.716,154.079 173.519,153.923 173.519 C 153.767 173.519,153.710 173.334,153.797 173.109 C 153.883 172.884,153.813 172.613,153.641 172.507 C 153.469 172.401,153.330 172.486,153.332 172.697 M252.416 173.592 C 252.164 174.531,252.190 174.749,252.529 174.540 C 252.692 174.439,252.756 174.243,252.670 174.104 C 252.584 173.965,252.648 173.769,252.812 173.668 C 253.177 173.442,253.204 172.933,252.851 172.933 C 252.708 172.933,252.513 173.230,252.416 173.592 M251.704 176.064 C 251.522 176.660,251.421 177.195,251.480 177.254 C 251.539 177.313,251.746 176.883,251.939 176.298 C 252.132 175.714,252.233 175.178,252.163 175.109 C 252.093 175.039,251.887 175.469,251.704 176.064 M155.084 177.376 C 155.084 177.872,155.771 179.371,155.998 179.371 C 156.147 179.371,156.052 178.943,155.786 178.420 C 155.273 177.411,155.084 177.130,155.084 177.376 M250.217 179.267 C 249.870 180.176,249.647 180.981,249.723 181.057 C 249.800 181.133,249.948 180.851,250.054 180.430 C 250.160 180.008,250.351 179.663,250.479 179.663 C 250.665 179.663,251.353 178.132,251.353 177.718 C 251.353 177.092,250.718 177.959,250.217 179.267 M155.962 179.777 C 155.962 180.061,158.658 184.864,159.184 185.516 C 160.082 186.629,159.596 185.412,158.425 183.614 C 157.901 182.809,157.250 181.591,156.978 180.907 C 156.582 179.911,155.962 179.221,155.962 179.777 M247.805 184.103 C 247.112 185.283,246.409 186.344,246.242 186.462 C 246.049 186.600,246.046 186.680,246.233 186.686 C 246.394 186.691,246.351 186.806,246.137 186.941 C 245.924 187.076,245.463 187.655,245.113 188.227 C 244.421 189.358,240.142 194.389,239.231 195.144 C 238.921 195.401,238.065 196.142,237.329 196.791 C 235.324 198.559,233.511 199.960,232.041 200.876 C 231.317 201.327,230.658 201.784,230.578 201.891 C 230.395 202.134,226.802 204.032,224.945 204.866 C 224.181 205.210,223.555 205.594,223.555 205.720 C 223.555 205.845,224.347 205.565,225.316 205.096 C 226.284 204.627,227.205 204.243,227.364 204.243 C 227.522 204.243,227.652 204.103,227.652 203.933 C 227.652 203.763,227.774 203.699,227.924 203.791 C 228.074 203.884,228.276 203.831,228.373 203.674 C 228.470 203.517,229.335 202.970,230.295 202.458 C 231.255 201.947,232.041 201.407,232.041 201.259 C 232.041 201.111,232.173 201.071,232.334 201.170 C 232.495 201.270,232.626 201.224,232.626 201.069 C 232.626 200.914,233.186 200.453,233.870 200.046 C 236.306 198.593,243.841 191.178,244.695 189.393 C 244.868 189.031,245.120 188.734,245.255 188.734 C 245.391 188.734,245.501 188.537,245.501 188.296 C 245.501 188.054,245.622 187.857,245.769 187.857 C 245.916 187.857,246.355 187.297,246.745 186.613 C 247.135 185.929,247.891 184.677,248.425 183.830 C 248.959 182.983,249.322 182.216,249.231 182.125 C 249.140 182.034,248.498 182.924,247.805 184.103 M160.193 187.198 C 160.449 187.721,160.787 188.149,160.944 188.149 C 161.101 188.149,161.229 188.319,161.229 188.526 C 161.229 189.493,170.429 198.976,171.367 198.976 C 171.585 198.976,171.763 199.106,171.763 199.265 C 171.763 199.527,172.637 200.183,175.019 201.709 C 175.481 202.006,175.860 202.107,175.860 201.935 C 175.860 201.762,175.366 201.367,174.762 201.056 C 174.159 200.744,173.402 200.244,173.080 199.944 C 172.758 199.643,171.854 198.940,171.071 198.382 C 169.298 197.118,164.665 192.438,162.677 189.905 C 161.856 188.859,160.857 187.608,160.456 187.125 L 159.727 186.247 160.193 187.198 M176.152 202.323 C 176.152 202.580,180.262 204.828,180.733 204.828 C 180.801 204.828,180.687 204.644,180.480 204.420 C 180.272 204.195,180.015 204.065,179.908 204.129 C 179.801 204.194,179.669 204.147,179.615 204.025 C 179.479 203.718,176.152 202.083,176.152 202.323 M182.004 205.329 C 182.568 205.616,183.094 205.929,183.175 206.023 C 183.416 206.306,185.306 206.891,185.466 206.731 C 185.671 206.526,185.578 206.475,183.760 205.787 C 181.355 204.876,180.866 204.749,182.004 205.329 M222.312 205.908 C 222.030 205.981,221.800 206.185,221.800 206.361 C 221.800 206.537,221.713 206.595,221.607 206.489 C 221.501 206.383,221.271 206.408,221.095 206.545 C 220.919 206.681,219.890 207.028,218.808 207.315 C 217.727 207.602,216.910 207.947,216.993 208.082 C 217.077 208.217,217.369 208.204,217.643 208.052 C 217.918 207.901,219.294 207.439,220.702 207.025 C 223.191 206.293,224.613 205.306,222.312 205.908 M187.564 207.508 C 188.610 207.822,189.702 208.207,189.990 208.365 C 190.278 208.523,190.664 208.559,190.848 208.445 C 191.032 208.332,190.072 207.938,188.715 207.571 C 185.719 206.761,184.925 206.717,187.564 207.508 M215.508 208.339 C 215.608 208.500,215.879 208.632,216.111 208.632 C 216.343 208.632,216.533 208.500,216.533 208.339 C 216.533 208.178,216.261 208.047,215.930 208.047 C 215.599 208.047,215.409 208.178,215.508 208.339 M191.368 208.632 C 191.368 208.793,191.631 208.925,191.953 208.925 C 192.275 208.925,192.538 208.793,192.538 208.632 C 192.538 208.471,192.275 208.339,191.953 208.339 C 191.631 208.339,191.368 208.471,191.368 208.632 M214.192 208.632 C 214.192 208.793,214.389 208.925,214.631 208.925 C 214.872 208.925,215.069 208.793,215.069 208.632 C 215.069 208.471,214.872 208.339,214.631 208.339 C 214.389 208.339,214.192 208.471,214.192 208.632 M192.977 208.925 C 192.874 209.091,193.126 209.217,193.563 209.217 C 193.999 209.217,194.251 209.091,194.148 208.925 C 194.048 208.764,193.785 208.632,193.563 208.632 C 193.340 208.632,193.077 208.764,192.977 208.925 M212.436 208.925 C 212.095 209.145,212.181 209.209,212.819 209.213 C 213.293 209.215,213.564 209.094,213.460 208.925 C 213.236 208.561,212.998 208.561,212.436 208.925 M195.102 209.424 C 195.466 209.494,195.993 209.492,196.273 209.418 C 196.552 209.345,196.255 209.288,195.611 209.291 C 194.967 209.294,194.738 209.354,195.102 209.424 M210.461 209.419 C 210.743 209.493,211.203 209.493,211.485 209.419 C 211.767 209.345,211.536 209.285,210.973 209.285 C 210.410 209.285,210.179 209.345,210.461 209.419 M197.732 209.716 C 198.094 209.786,198.687 209.786,199.049 209.716 C 199.411 209.647,199.115 209.590,198.391 209.590 C 197.666 209.590,197.370 209.647,197.732 209.716 M207.388 209.716 C 207.751 209.786,208.343 209.786,208.705 209.716 C 209.067 209.647,208.771 209.590,208.047 209.590 C 207.323 209.590,207.026 209.647,207.388 209.716 " stroke="none" fill="#8878ac" fill-rule="evenodd"></path><path id="path2" d="M202.129 106.140 C 202.817 106.202,203.871 106.201,204.470 106.138 C 205.069 106.075,204.506 106.025,203.219 106.026 C 201.931 106.027,201.441 106.078,202.129 106.140 M174.543 114.583 L 173.665 115.337 174.616 114.708 C 175.139 114.362,175.567 114.022,175.567 113.952 C 175.567 113.733,175.443 113.810,174.543 114.583 M239.941 121.233 C 239.941 121.283,240.369 121.711,240.892 122.184 L 241.843 123.043 240.984 122.092 C 240.183 121.206,239.941 121.007,239.941 121.233 M240.947 193.782 L 240.088 194.733 241.039 193.874 C 241.562 193.401,241.990 192.973,241.990 192.923 C 241.990 192.697,241.748 192.896,240.947 193.782 M200.954 210.009 C 201.318 210.079,201.845 210.077,202.125 210.004 C 202.405 209.930,202.107 209.873,201.463 209.876 C 200.819 209.880,200.590 209.939,200.954 210.009 M204.466 210.009 C 204.830 210.079,205.356 210.077,205.636 210.004 C 205.916 209.930,205.618 209.873,204.974 209.876 C 204.331 209.880,204.102 209.939,204.466 210.009 " stroke="none" fill="#74619c" fill-rule="evenodd"></path><path id="path3" d="M151.055 158.010 C 151.055 158.574,151.116 158.804,151.189 158.522 C 151.263 158.241,151.263 157.780,151.189 157.498 C 151.116 157.217,151.055 157.447,151.055 158.010 " stroke="none" fill="#6c5c9c" fill-rule="evenodd"></path><path id="path4" d="M200.923 105.852 C 200.848 105.973,201.882 106.072,203.219 106.072 C 204.556 106.072,205.589 105.973,205.514 105.852 C 205.440 105.732,204.407 105.633,203.219 105.633 C 202.031 105.633,200.998 105.732,200.923 105.852 M197.883 106.135 C 198.327 106.203,198.986 106.201,199.346 106.131 C 199.706 106.062,199.342 106.007,198.537 106.009 C 197.732 106.011,197.438 106.068,197.883 106.135 M207.388 106.132 C 207.751 106.202,208.343 106.202,208.705 106.132 C 209.067 106.062,208.771 106.005,208.047 106.005 C 207.323 106.005,207.026 106.062,207.388 106.132 M167.799 119.751 L 166.642 120.995 167.886 119.838 C 169.042 118.763,169.264 118.508,169.043 118.508 C 168.995 118.508,168.435 119.067,167.799 119.751 M164.432 123.116 L 163.424 124.214 164.521 123.205 C 165.542 122.267,165.753 122.019,165.529 122.019 C 165.480 122.019,164.987 122.513,164.432 123.116 M152.597 144.843 C 152.486 145.349,152.456 145.823,152.530 145.898 C 152.605 145.972,152.750 145.613,152.853 145.099 C 153.097 143.879,152.861 143.643,152.597 144.843 M253.991 146.476 C 253.994 146.785,254.129 147.235,254.293 147.476 C 254.510 147.797,254.537 147.678,254.393 147.037 C 254.153 145.961,253.985 145.728,253.991 146.476 M151.118 158.182 C 151.110 159.056,151.206 159.598,151.333 159.397 C 151.628 158.934,151.643 156.917,151.353 156.739 C 151.233 156.665,151.127 157.314,151.118 158.182 M254.169 168.702 C 254.069 168.963,253.998 169.397,254.012 169.665 C 254.026 169.934,254.153 169.765,254.295 169.290 C 254.571 168.367,254.473 167.910,254.169 168.702 M152.490 170.622 C 152.647 171.321,152.846 171.962,152.932 172.047 C 153.183 172.296,152.696 169.887,152.438 169.606 C 152.310 169.466,152.333 169.923,152.490 170.622 M242.703 192.026 L 241.843 192.977 242.794 192.118 C 243.317 191.645,243.745 191.217,243.745 191.167 C 243.745 190.941,243.504 191.140,242.703 192.026 M239.931 195.099 L 238.332 196.781 240.015 195.182 C 241.578 193.696,241.831 193.416,241.614 193.416 C 241.568 193.416,240.811 194.173,239.931 195.099 M219.459 207.462 C 218.871 207.650,218.842 207.698,219.312 207.704 C 219.634 207.709,220.161 207.600,220.483 207.462 C 221.228 207.141,220.459 207.141,219.459 207.462 M194.544 209.584 C 194.691 209.731,195.123 209.803,195.504 209.743 C 196.090 209.651,196.048 209.610,195.236 209.475 C 194.654 209.379,194.381 209.422,194.544 209.584 M211.119 209.510 L 210.241 209.733 211.029 209.768 C 211.462 209.787,211.898 209.671,211.997 209.510 C 212.097 209.349,212.137 209.233,212.087 209.252 C 212.038 209.271,211.602 209.387,211.119 209.510 M200.409 210.183 C 200.546 210.319,201.102 210.385,201.645 210.329 C 202.609 210.229,202.603 210.223,201.398 210.081 C 200.718 210.000,200.273 210.046,200.409 210.183 M204.974 210.095 L 203.804 210.305 205.048 210.346 C 205.732 210.369,206.291 210.256,206.291 210.095 C 206.291 209.934,206.258 209.821,206.218 209.844 C 206.178 209.867,205.618 209.980,204.974 210.095 " stroke="none" fill="#695494" fill-rule="evenodd"></path></g></svg>